<svg xmlns="http://www.w3.org/2000/svg" viewBox="0 0 64 64" fill="none">
  <defs>
    <linearGradient id="satGrad" x1="0%" y1="0%" x2="100%" y2="100%">
      <stop offset="0%" stop-color="#00ffe7"/>
      <stop offset="100%" stop-color="#9d00ff"/>
    </linearGradient>
  </defs>
  <path d="M32 8 L40 24 L40 44 L24 44 L24 24 Z" fill="url(#satGrad)" stroke="#0d0d0d" stroke-width="1.5"/>
  <rect x="20" y="20" width="6" height="14" fill="#9d00ff"/>
  <rect x="38" y="20" width="6" height="14" fill="#9d00ff"/>
  <rect x="40" y="28" width="6" height="6" fill="#ff007f"/>
  <line x1="32" y1="8" x2="32" y2="2" stroke="url(#satGrad)" stroke-width="2"/>
  <circle cx="32" cy="2" r="2" fill="url(#satGrad)"/>
  <path d="M12 50 C20 46 28 50 32 54 C36 50 44 46 52 50" stroke="url(#satGrad)" stroke-width="1.5" fill="none" opacity="0.6"/>
  <path d="M8 56 C18 52 28 56 32 58 C36 56 46 52 56 56" stroke="url(#satGrad)" stroke-width="1.5" fill="none" opacity="0.4"/>
</svg>
